<mxfile host="Electron" modified="2023-04-01T10:04:25.985Z" agent="Mozilla/5.0 (Windows NT 10.0; Win64; x64) AppleWebKit/537.36 (KHTML, like Gecko) draw.io/21.1.2 Chrome/106.0.5249.199 Electron/21.4.3 Safari/537.36" etag="GlH3KihXD9V-k2F3FhHd" version="21.1.2" type="device">
  <diagram name="Страница 1" id="1Sl_nZ1g1N8PrJDqj42g">
    <mxGraphModel dx="1245" dy="1408" grid="1" gridSize="10" guides="1" tooltips="1" connect="1" arrows="1" fold="1" page="1" pageScale="1" pageWidth="827" pageHeight="1169" math="0" shadow="0">
      <root>
        <mxCell id="0" />
        <mxCell id="1" parent="0" />
        <mxCell id="bT7lZ-O7QSs4i1S0B8-C-22" style="edgeStyle=none;curved=1;rounded=1;orthogonalLoop=1;jettySize=auto;html=1;exitX=0.5;exitY=1;exitDx=0;exitDy=0;entryX=1;entryY=0.5;entryDx=0;entryDy=0;strokeWidth=1;fontFamily=Lucida Console;fontSize=12;fontColor=#F0F0F0;startSize=8;endSize=8;" parent="1" edge="1">
          <mxGeometry relative="1" as="geometry">
            <Array as="points">
              <mxPoint x="-140" y="1090" />
              <mxPoint x="-230" y="500" />
            </Array>
            <mxPoint x="-380" y="920" as="sourcePoint" />
          </mxGeometry>
        </mxCell>
        <mxCell id="Tnal-qNQDtSqXhumuWoh-2" value="" style="group" vertex="1" connectable="0" parent="1">
          <mxGeometry x="1050" y="200" width="180" height="60" as="geometry" />
        </mxCell>
        <mxCell id="Tnal-qNQDtSqXhumuWoh-3" value="" style="verticalLabelPosition=bottom;verticalAlign=top;html=1;shape=process;whiteSpace=wrap;rounded=1;size=0.14;arcSize=6;strokeWidth=1;fontFamily=Lucida Console;fontSize=16;fillColor=#f8cecc;strokeColor=#b85450;" vertex="1" parent="Tnal-qNQDtSqXhumuWoh-2">
          <mxGeometry width="180" height="60" as="geometry" />
        </mxCell>
        <mxCell id="Tnal-qNQDtSqXhumuWoh-4" value="PrioritySort" style="text;strokeColor=none;fillColor=none;html=1;align=center;verticalAlign=middle;whiteSpace=wrap;rounded=0;fontSize=16;fontFamily=Lucida Console;fontColor=#000000;" vertex="1" parent="Tnal-qNQDtSqXhumuWoh-2">
          <mxGeometry x="51.42857142857143" y="15" width="77.14285714285715" height="30" as="geometry" />
        </mxCell>
        <mxCell id="Tnal-qNQDtSqXhumuWoh-8" style="edgeStyle=none;curved=1;rounded=0;orthogonalLoop=1;jettySize=auto;html=1;exitX=0.5;exitY=1;exitDx=0;exitDy=0;exitPerimeter=0;fontSize=12;startSize=8;endSize=8;" edge="1" parent="1" source="Tnal-qNQDtSqXhumuWoh-5" target="Tnal-qNQDtSqXhumuWoh-6">
          <mxGeometry relative="1" as="geometry" />
        </mxCell>
        <mxCell id="Tnal-qNQDtSqXhumuWoh-5" value="Start" style="strokeWidth=1;html=1;shape=mxgraph.flowchart.terminator;whiteSpace=wrap;fontSize=16;rounded=1;fillColor=#ffe6cc;strokeColor=#d79b00;" vertex="1" parent="1">
          <mxGeometry x="1070" y="300" width="140" height="60" as="geometry" />
        </mxCell>
        <mxCell id="Tnal-qNQDtSqXhumuWoh-10" style="edgeStyle=none;curved=1;rounded=0;orthogonalLoop=1;jettySize=auto;html=1;exitX=0.5;exitY=1;exitDx=0;exitDy=0;fontSize=12;startSize=8;endSize=8;" edge="1" parent="1" source="Tnal-qNQDtSqXhumuWoh-6" target="Tnal-qNQDtSqXhumuWoh-9">
          <mxGeometry relative="1" as="geometry" />
        </mxCell>
        <mxCell id="Tnal-qNQDtSqXhumuWoh-6" value="Input&lt;br&gt;nums" style="shape=parallelogram;html=1;strokeWidth=1;perimeter=parallelogramPerimeter;whiteSpace=wrap;rounded=1;arcSize=12;size=0.23;fontFamily=Lucida Console;fontSize=16;fillColor=#f5f5f5;strokeColor=#666666;fontColor=#333333;" vertex="1" parent="1">
          <mxGeometry x="1042.5" y="400" width="195" height="60" as="geometry" />
        </mxCell>
        <mxCell id="Tnal-qNQDtSqXhumuWoh-7" style="edgeStyle=none;curved=1;rounded=0;orthogonalLoop=1;jettySize=auto;html=1;exitX=0.5;exitY=1;exitDx=0;exitDy=0;fontSize=12;startSize=8;endSize=8;" edge="1" parent="1" source="Tnal-qNQDtSqXhumuWoh-3" target="Tnal-qNQDtSqXhumuWoh-5">
          <mxGeometry relative="1" as="geometry" />
        </mxCell>
        <mxCell id="Tnal-qNQDtSqXhumuWoh-12" style="edgeStyle=none;curved=1;rounded=0;orthogonalLoop=1;jettySize=auto;html=1;exitX=0.5;exitY=1;exitDx=0;exitDy=0;fontSize=12;startSize=8;endSize=8;" edge="1" parent="1" source="Tnal-qNQDtSqXhumuWoh-9" target="Tnal-qNQDtSqXhumuWoh-11">
          <mxGeometry relative="1" as="geometry" />
        </mxCell>
        <mxCell id="Tnal-qNQDtSqXhumuWoh-9" value="&lt;div&gt;&lt;div&gt;queue= []&lt;/div&gt;&lt;/div&gt;" style="rounded=1;whiteSpace=wrap;html=1;absoluteArcSize=1;arcSize=14;strokeWidth=1;fontFamily=Lucida Console;fontSize=16;fillColor=#f5f5f5;strokeColor=#666666;fontColor=#333333;" vertex="1" parent="1">
          <mxGeometry x="1075" y="500" width="130" height="45" as="geometry" />
        </mxCell>
        <mxCell id="Tnal-qNQDtSqXhumuWoh-14" value="YES" style="edgeStyle=none;curved=1;rounded=0;orthogonalLoop=1;jettySize=auto;html=1;exitX=1;exitY=0.5;exitDx=0;exitDy=0;exitPerimeter=0;fontSize=12;startSize=8;endSize=8;fillColor=#dae8fc;strokeColor=#6c8ebf;fontColor=#0038F0;" edge="1" parent="1" source="Tnal-qNQDtSqXhumuWoh-11" target="Tnal-qNQDtSqXhumuWoh-13">
          <mxGeometry relative="1" as="geometry" />
        </mxCell>
        <mxCell id="Tnal-qNQDtSqXhumuWoh-16" value="NO" style="edgeStyle=none;curved=1;rounded=0;orthogonalLoop=1;jettySize=auto;html=1;exitX=0.5;exitY=1;exitDx=0;exitDy=0;exitPerimeter=0;fontSize=12;startSize=8;endSize=8;fontColor=#F02B2B;fillColor=#f8cecc;strokeColor=#b85450;" edge="1" parent="1" source="Tnal-qNQDtSqXhumuWoh-11" target="Tnal-qNQDtSqXhumuWoh-15">
          <mxGeometry relative="1" as="geometry" />
        </mxCell>
        <mxCell id="Tnal-qNQDtSqXhumuWoh-11" value="&lt;div&gt;len(nums)&amp;gt;1&lt;/div&gt;" style="strokeWidth=1;html=1;shape=mxgraph.flowchart.decision;whiteSpace=wrap;rounded=1;fontSize=16;fontFamily=Lucida Console;fillColor=#d5e8d4;strokeColor=#82b366;" vertex="1" parent="1">
          <mxGeometry x="1070" y="600" width="140" height="60" as="geometry" />
        </mxCell>
        <mxCell id="Tnal-qNQDtSqXhumuWoh-17" style="edgeStyle=none;curved=1;rounded=0;orthogonalLoop=1;jettySize=auto;html=1;exitX=0.5;exitY=0;exitDx=0;exitDy=0;entryX=0.5;entryY=0;entryDx=0;entryDy=0;entryPerimeter=0;fontSize=12;startSize=8;endSize=8;" edge="1" parent="1" source="Tnal-qNQDtSqXhumuWoh-13" target="Tnal-qNQDtSqXhumuWoh-11">
          <mxGeometry relative="1" as="geometry">
            <Array as="points">
              <mxPoint x="1370" y="470" />
            </Array>
          </mxGeometry>
        </mxCell>
        <mxCell id="Tnal-qNQDtSqXhumuWoh-13" value="&lt;div&gt;q_insert(queue, nums.pop())&lt;/div&gt;" style="rounded=1;whiteSpace=wrap;html=1;absoluteArcSize=1;arcSize=14;strokeWidth=1;fontFamily=Lucida Console;fontSize=16;fillColor=#f5f5f5;strokeColor=#666666;fontColor=#333333;" vertex="1" parent="1">
          <mxGeometry x="1280" y="607.5" width="200" height="45" as="geometry" />
        </mxCell>
        <mxCell id="Tnal-qNQDtSqXhumuWoh-51" style="edgeStyle=none;curved=1;rounded=0;orthogonalLoop=1;jettySize=auto;html=1;exitX=0.5;exitY=1;exitDx=0;exitDy=0;fontSize=12;startSize=8;endSize=8;" edge="1" parent="1" source="Tnal-qNQDtSqXhumuWoh-15" target="Tnal-qNQDtSqXhumuWoh-50">
          <mxGeometry relative="1" as="geometry" />
        </mxCell>
        <mxCell id="Tnal-qNQDtSqXhumuWoh-15" value="&lt;div&gt;nums = queue&lt;/div&gt;" style="rounded=1;whiteSpace=wrap;html=1;absoluteArcSize=1;arcSize=14;strokeWidth=1;fontFamily=Lucida Console;fontSize=16;fillColor=#f5f5f5;strokeColor=#666666;fontColor=#333333;" vertex="1" parent="1">
          <mxGeometry x="1065" y="720" width="150" height="30" as="geometry" />
        </mxCell>
        <mxCell id="Tnal-qNQDtSqXhumuWoh-18" value="" style="group" vertex="1" connectable="0" parent="1">
          <mxGeometry x="1654" y="200" width="180" height="60" as="geometry" />
        </mxCell>
        <mxCell id="Tnal-qNQDtSqXhumuWoh-19" value="" style="verticalLabelPosition=bottom;verticalAlign=top;html=1;shape=process;whiteSpace=wrap;rounded=1;size=0.14;arcSize=6;strokeWidth=1;fontFamily=Lucida Console;fontSize=16;fillColor=#f8cecc;strokeColor=#b85450;" vertex="1" parent="Tnal-qNQDtSqXhumuWoh-18">
          <mxGeometry width="180" height="60" as="geometry" />
        </mxCell>
        <mxCell id="Tnal-qNQDtSqXhumuWoh-20" value="PrioritySort" style="text;strokeColor=none;fillColor=none;html=1;align=center;verticalAlign=middle;whiteSpace=wrap;rounded=0;fontSize=16;fontFamily=Lucida Console;fontColor=#000000;" vertex="1" parent="Tnal-qNQDtSqXhumuWoh-18">
          <mxGeometry x="51.42857142857143" y="15" width="77.14285714285715" height="30" as="geometry" />
        </mxCell>
        <mxCell id="Tnal-qNQDtSqXhumuWoh-24" style="edgeStyle=none;curved=1;rounded=0;orthogonalLoop=1;jettySize=auto;html=1;exitX=0.5;exitY=1;exitDx=0;exitDy=0;exitPerimeter=0;fontSize=12;startSize=8;endSize=8;" edge="1" parent="1" source="Tnal-qNQDtSqXhumuWoh-21" target="Tnal-qNQDtSqXhumuWoh-22">
          <mxGeometry relative="1" as="geometry" />
        </mxCell>
        <mxCell id="Tnal-qNQDtSqXhumuWoh-21" value="Start" style="strokeWidth=1;html=1;shape=mxgraph.flowchart.terminator;whiteSpace=wrap;fontSize=16;rounded=1;fillColor=#ffe6cc;strokeColor=#d79b00;" vertex="1" parent="1">
          <mxGeometry x="1674" y="300" width="140" height="60" as="geometry" />
        </mxCell>
        <mxCell id="Tnal-qNQDtSqXhumuWoh-26" style="edgeStyle=none;curved=1;rounded=0;orthogonalLoop=1;jettySize=auto;html=1;exitX=0.5;exitY=1;exitDx=0;exitDy=0;fontSize=12;startSize=8;endSize=8;" edge="1" parent="1" source="Tnal-qNQDtSqXhumuWoh-22" target="Tnal-qNQDtSqXhumuWoh-25">
          <mxGeometry relative="1" as="geometry" />
        </mxCell>
        <mxCell id="Tnal-qNQDtSqXhumuWoh-22" value="Input&lt;br&gt;queue, num" style="shape=parallelogram;html=1;strokeWidth=1;perimeter=parallelogramPerimeter;whiteSpace=wrap;rounded=1;arcSize=12;size=0.23;fontFamily=Lucida Console;fontSize=16;fillColor=#f5f5f5;strokeColor=#666666;fontColor=#333333;" vertex="1" parent="1">
          <mxGeometry x="1646.5" y="400" width="195" height="60" as="geometry" />
        </mxCell>
        <mxCell id="Tnal-qNQDtSqXhumuWoh-23" style="edgeStyle=none;curved=1;rounded=0;orthogonalLoop=1;jettySize=auto;html=1;exitX=0.5;exitY=1;exitDx=0;exitDy=0;fontSize=12;startSize=8;endSize=8;" edge="1" parent="1" source="Tnal-qNQDtSqXhumuWoh-19" target="Tnal-qNQDtSqXhumuWoh-21">
          <mxGeometry relative="1" as="geometry" />
        </mxCell>
        <mxCell id="Tnal-qNQDtSqXhumuWoh-28" value="YES" style="edgeStyle=none;curved=1;rounded=0;orthogonalLoop=1;jettySize=auto;html=1;exitX=1;exitY=0.5;exitDx=0;exitDy=0;exitPerimeter=0;fontSize=12;startSize=8;endSize=8;fillColor=#dae8fc;strokeColor=#6c8ebf;fontColor=#110AF0;" edge="1" parent="1" source="Tnal-qNQDtSqXhumuWoh-25" target="Tnal-qNQDtSqXhumuWoh-27">
          <mxGeometry relative="1" as="geometry" />
        </mxCell>
        <mxCell id="Tnal-qNQDtSqXhumuWoh-30" value="NO" style="edgeStyle=none;curved=1;rounded=0;orthogonalLoop=1;jettySize=auto;html=1;exitX=0.5;exitY=1;exitDx=0;exitDy=0;exitPerimeter=0;fontSize=12;startSize=8;endSize=8;fontColor=#F02B2B;fillColor=#f8cecc;strokeColor=#b85450;entryX=0.5;entryY=0;entryDx=0;entryDy=0;" edge="1" parent="1" source="Tnal-qNQDtSqXhumuWoh-25" target="Tnal-qNQDtSqXhumuWoh-31">
          <mxGeometry relative="1" as="geometry">
            <mxPoint x="1780" y="590" as="targetPoint" />
          </mxGeometry>
        </mxCell>
        <mxCell id="Tnal-qNQDtSqXhumuWoh-25" value="&lt;div&gt;len(queue)==0&lt;/div&gt;" style="strokeWidth=1;html=1;shape=mxgraph.flowchart.decision;whiteSpace=wrap;rounded=1;fontSize=16;fontFamily=Lucida Console;fillColor=#d5e8d4;strokeColor=#82b366;" vertex="1" parent="1">
          <mxGeometry x="1666" y="492.5" width="156" height="60" as="geometry" />
        </mxCell>
        <mxCell id="Tnal-qNQDtSqXhumuWoh-27" value="&lt;div&gt;queue[0]=num&lt;/div&gt;" style="rounded=1;whiteSpace=wrap;html=1;absoluteArcSize=1;arcSize=14;strokeWidth=1;fontFamily=Lucida Console;fontSize=16;fillColor=#f5f5f5;strokeColor=#666666;fontColor=#333333;" vertex="1" parent="1">
          <mxGeometry x="1920" y="507.5" width="130" height="30" as="geometry" />
        </mxCell>
        <mxCell id="Tnal-qNQDtSqXhumuWoh-35" value="YES" style="edgeStyle=none;curved=1;rounded=0;orthogonalLoop=1;jettySize=auto;html=1;exitX=1;exitY=0.5;exitDx=0;exitDy=0;exitPerimeter=0;fontSize=12;startSize=8;endSize=8;fillColor=#dae8fc;strokeColor=#6c8ebf;fontColor=#301AF0;" edge="1" parent="1" source="Tnal-qNQDtSqXhumuWoh-29" target="Tnal-qNQDtSqXhumuWoh-33">
          <mxGeometry relative="1" as="geometry" />
        </mxCell>
        <mxCell id="Tnal-qNQDtSqXhumuWoh-49" value="NO" style="edgeStyle=none;curved=1;rounded=0;orthogonalLoop=1;jettySize=auto;html=1;exitX=0.5;exitY=1;exitDx=0;exitDy=0;exitPerimeter=0;fontSize=12;startSize=8;endSize=8;fillColor=#f8cecc;strokeColor=#b85450;fontColor=#F03932;" edge="1" parent="1" source="Tnal-qNQDtSqXhumuWoh-29" target="Tnal-qNQDtSqXhumuWoh-48">
          <mxGeometry relative="1" as="geometry" />
        </mxCell>
        <mxCell id="Tnal-qNQDtSqXhumuWoh-29" value="&lt;div&gt;lnq&amp;gt;0&lt;/div&gt;" style="strokeWidth=1;html=1;shape=mxgraph.flowchart.decision;whiteSpace=wrap;rounded=1;fontSize=16;fontFamily=Lucida Console;fillColor=#d5e8d4;strokeColor=#82b366;" vertex="1" parent="1">
          <mxGeometry x="1692" y="680" width="104" height="50" as="geometry" />
        </mxCell>
        <mxCell id="Tnal-qNQDtSqXhumuWoh-32" style="edgeStyle=none;curved=1;rounded=0;orthogonalLoop=1;jettySize=auto;html=1;exitX=0.5;exitY=1;exitDx=0;exitDy=0;fontSize=12;startSize=8;endSize=8;" edge="1" parent="1" source="Tnal-qNQDtSqXhumuWoh-31" target="Tnal-qNQDtSqXhumuWoh-29">
          <mxGeometry relative="1" as="geometry" />
        </mxCell>
        <mxCell id="Tnal-qNQDtSqXhumuWoh-31" value="&lt;div&gt;lnq=len(queue)&lt;/div&gt;" style="rounded=1;whiteSpace=wrap;html=1;absoluteArcSize=1;arcSize=14;strokeWidth=1;fontFamily=Lucida Console;fontSize=16;fillColor=#f5f5f5;strokeColor=#666666;fontColor=#333333;" vertex="1" parent="1">
          <mxGeometry x="1679" y="607.5" width="130" height="30" as="geometry" />
        </mxCell>
        <mxCell id="Tnal-qNQDtSqXhumuWoh-36" value="YES" style="edgeStyle=none;curved=1;rounded=0;orthogonalLoop=1;jettySize=auto;html=1;exitX=1;exitY=0.5;exitDx=0;exitDy=0;exitPerimeter=0;entryX=0;entryY=0.5;entryDx=0;entryDy=0;entryPerimeter=0;fontSize=12;startSize=8;endSize=8;fillColor=#dae8fc;strokeColor=#6c8ebf;fontColor=#301AF0;" edge="1" parent="1" source="Tnal-qNQDtSqXhumuWoh-33" target="Tnal-qNQDtSqXhumuWoh-34">
          <mxGeometry relative="1" as="geometry" />
        </mxCell>
        <mxCell id="Tnal-qNQDtSqXhumuWoh-43" value="NO" style="edgeStyle=none;curved=1;rounded=0;orthogonalLoop=1;jettySize=auto;html=1;exitX=0.5;exitY=1;exitDx=0;exitDy=0;exitPerimeter=0;fontSize=12;startSize=8;endSize=8;fillColor=#f8cecc;strokeColor=#b85450;fontColor=#F02B2B;" edge="1" parent="1" source="Tnal-qNQDtSqXhumuWoh-33" target="Tnal-qNQDtSqXhumuWoh-42">
          <mxGeometry relative="1" as="geometry" />
        </mxCell>
        <mxCell id="Tnal-qNQDtSqXhumuWoh-33" value="&lt;div&gt;num&amp;gt;=queue[x]&lt;/div&gt;" style="strokeWidth=1;html=1;shape=mxgraph.flowchart.decision;whiteSpace=wrap;rounded=1;fontSize=16;fontFamily=Lucida Console;fillColor=#d5e8d4;strokeColor=#82b366;" vertex="1" parent="1">
          <mxGeometry x="1860" y="675" width="150" height="55" as="geometry" />
        </mxCell>
        <mxCell id="Tnal-qNQDtSqXhumuWoh-38" value="YES" style="edgeStyle=none;curved=1;rounded=0;orthogonalLoop=1;jettySize=auto;html=1;exitX=1;exitY=0.5;exitDx=0;exitDy=0;exitPerimeter=0;fontSize=12;startSize=8;endSize=8;fillColor=#dae8fc;strokeColor=#6c8ebf;fontColor=#301AF0;" edge="1" parent="1" source="Tnal-qNQDtSqXhumuWoh-34" target="Tnal-qNQDtSqXhumuWoh-37">
          <mxGeometry relative="1" as="geometry" />
        </mxCell>
        <mxCell id="Tnal-qNQDtSqXhumuWoh-40" value="NO" style="edgeStyle=none;curved=1;rounded=0;orthogonalLoop=1;jettySize=auto;html=1;exitX=0.5;exitY=1;exitDx=0;exitDy=0;exitPerimeter=0;fontSize=12;startSize=8;endSize=8;fontColor=#F03932;fillColor=#f8cecc;strokeColor=#b85450;" edge="1" parent="1" source="Tnal-qNQDtSqXhumuWoh-34" target="Tnal-qNQDtSqXhumuWoh-39">
          <mxGeometry relative="1" as="geometry" />
        </mxCell>
        <mxCell id="Tnal-qNQDtSqXhumuWoh-34" value="&lt;div&gt;x==lnq-1&lt;/div&gt;" style="strokeWidth=1;html=1;shape=mxgraph.flowchart.decision;whiteSpace=wrap;rounded=1;fontSize=16;fontFamily=Lucida Console;fillColor=#d5e8d4;strokeColor=#82b366;" vertex="1" parent="1">
          <mxGeometry x="2068" y="677.5" width="104" height="50" as="geometry" />
        </mxCell>
        <mxCell id="Tnal-qNQDtSqXhumuWoh-37" value="&lt;div&gt;queue.insert(x + 1, num)&lt;/div&gt;" style="rounded=1;whiteSpace=wrap;html=1;absoluteArcSize=1;arcSize=14;strokeWidth=1;fontFamily=Lucida Console;fontSize=16;fillColor=#f5f5f5;strokeColor=#666666;fontColor=#333333;" vertex="1" parent="1">
          <mxGeometry x="2240" y="677.5" width="145" height="50" as="geometry" />
        </mxCell>
        <mxCell id="Tnal-qNQDtSqXhumuWoh-39" value="&lt;div&gt;continue&lt;/div&gt;" style="rounded=1;whiteSpace=wrap;html=1;absoluteArcSize=1;arcSize=14;strokeWidth=1;fontFamily=Lucida Console;fontSize=16;fillColor=#f5f5f5;strokeColor=#666666;fontColor=#333333;" vertex="1" parent="1">
          <mxGeometry x="2072.5" y="780" width="95" height="30" as="geometry" />
        </mxCell>
        <mxCell id="Tnal-qNQDtSqXhumuWoh-45" style="edgeStyle=none;curved=1;rounded=0;orthogonalLoop=1;jettySize=auto;html=1;exitX=0.5;exitY=1;exitDx=0;exitDy=0;entryX=0.5;entryY=0;entryDx=0;entryDy=0;fontSize=12;startSize=8;endSize=8;" edge="1" parent="1" source="Tnal-qNQDtSqXhumuWoh-42" target="Tnal-qNQDtSqXhumuWoh-44">
          <mxGeometry relative="1" as="geometry" />
        </mxCell>
        <mxCell id="Tnal-qNQDtSqXhumuWoh-42" value="&lt;div&gt;queue.insert(x, num)&lt;/div&gt;" style="rounded=1;whiteSpace=wrap;html=1;absoluteArcSize=1;arcSize=14;strokeWidth=1;fontFamily=Lucida Console;fontSize=16;fillColor=#f5f5f5;strokeColor=#666666;fontColor=#333333;" vertex="1" parent="1">
          <mxGeometry x="1836.25" y="780" width="197.5" height="40" as="geometry" />
        </mxCell>
        <mxCell id="Tnal-qNQDtSqXhumuWoh-47" style="edgeStyle=none;curved=1;rounded=0;orthogonalLoop=1;jettySize=auto;html=1;exitX=0;exitY=0.5;exitDx=0;exitDy=0;entryX=0.773;entryY=0.72;entryDx=0;entryDy=0;entryPerimeter=0;fontSize=12;startSize=8;endSize=8;" edge="1" parent="1" source="Tnal-qNQDtSqXhumuWoh-44" target="Tnal-qNQDtSqXhumuWoh-29">
          <mxGeometry relative="1" as="geometry">
            <Array as="points">
              <mxPoint x="1772" y="880" />
            </Array>
          </mxGeometry>
        </mxCell>
        <mxCell id="Tnal-qNQDtSqXhumuWoh-44" value="&lt;div&gt;lnq=lnq-1&lt;/div&gt;" style="rounded=1;whiteSpace=wrap;html=1;absoluteArcSize=1;arcSize=14;strokeWidth=1;fontFamily=Lucida Console;fontSize=16;fillColor=#f5f5f5;strokeColor=#666666;fontColor=#333333;" vertex="1" parent="1">
          <mxGeometry x="1887.5" y="855" width="95" height="30" as="geometry" />
        </mxCell>
        <mxCell id="Tnal-qNQDtSqXhumuWoh-48" value="END" style="strokeWidth=1;html=1;shape=mxgraph.flowchart.terminator;whiteSpace=wrap;fontSize=16;rounded=1;fillColor=#ffe6cc;strokeColor=#d79b00;" vertex="1" parent="1">
          <mxGeometry x="1674" y="880" width="140" height="60" as="geometry" />
        </mxCell>
        <mxCell id="Tnal-qNQDtSqXhumuWoh-50" value="END" style="strokeWidth=1;html=1;shape=mxgraph.flowchart.terminator;whiteSpace=wrap;fontSize=16;rounded=1;fillColor=#ffe6cc;strokeColor=#d79b00;" vertex="1" parent="1">
          <mxGeometry x="1070" y="810" width="140" height="60" as="geometry" />
        </mxCell>
      </root>
    </mxGraphModel>
  </diagram>
</mxfile>
